# xmcd CD database file
#
# Track frame offsets:
#	150
#	11027
#	28583
#
# Disc length: 691 seconds
#
# Revision: 1
# Processed by: cddbd v1.5.2PL0 Copyright (c) Steve Scherf et al.
# Submitted via: CDex 1.70beta2
#
DISCID=1a02b103
DTITLE=Son Volt - The Search (Bonus CD)
DYEAR=2007
DGENRE=Alt. Country, Americana
TTITLE0=The Picture (recording session - no horns)
TTITLE1=Highways and Cigarettes (recording session - acoustic)
TTITLE2=Circadian Rhythm (live at Austin City Limits Festival 2006)
EXTD=YEAR: 2007
EXTT0=
EXTT1=
EXTT2=
PLAYORDER=
